<svg width="481.2400024414062px" height="124.439990234375px" xmlns="http://www.w3.org/2000/svg" viewBox="9.379998779296898 12.780004882812499 481.2400024414062 124.439990234375" style="background:#e00" preserveAspectRatio="xMidYMid"><defs><filter id="editing-lego" x="-100%" y="-100%" width="300%" height="300%"><feFlood flood-color="#000" result="f1"></feFlood><feFlood flood-color="#ff0" result="f2"></feFlood><feMorphology operator="dilate" radius="3" in="SourceAlpha"></feMorphology><feConvolveMatrix order="5,5" divisor="1" result="cm1" kernelMatrix="0 1 1 1 0  1 0 0 0 1  1 0 0 0 1  1 0 0 0 1  0 1 1 1 0"></feConvolveMatrix><feComposite operator="in" in="f1" in2="cm1" result="c1"></feComposite><feMorphology operator="dilate" radius="3"></feMorphology><feConvolveMatrix order="5,5" divisor="1" result="cm2" kernelMatrix="0 1 1 1 0  1 0 0 0 1  1 0 0 0 1  1 0 0 0 1  0 1 1 1 0"></feConvolveMatrix><feComposite operator="in" in="f2" in2="cm2" result="c2"></feComposite><feMerge><feMergeNode in="c2"></feMergeNode><feMergeNode in="c1"></feMergeNode><feMergeNode in="SourceGraphic"></feMergeNode></feMerge></filter></defs><g filter="url(#editing-lego)"><g transform="translate(82.19141387939453, 104.439453125)"><path d="M26.05-29.57L26.05-29.57L26.05-29.57Q27.01-31.49 27.01-33.28L27.01-33.28L27.01-33.28Q27.01-35.07 26.82-36.06L26.82-36.06L26.82-36.06Q26.62-37.06 26.18-37.82L26.18-37.82L26.18-37.82Q25.22-39.49 23.30-39.49L23.30-39.49L23.30-39.49Q20.93-39.49 19.01-37.76L19.01-37.76L19.01-37.76Q16.96-35.97 16.96-33.15L16.96-33.15L16.96-33.15Q16.96-31.36 18.21-29.98L18.21-29.98L18.21-29.98Q19.46-28.61 21.38-27.33L21.38-27.33L21.38-27.33Q23.30-26.05 25.47-24.77L25.47-24.77L25.47-24.77Q27.65-23.49 29.57-21.95L29.57-21.95L29.57-21.95Q33.98-18.43 33.98-13.70L33.98-13.70L33.98-13.70Q33.98-10.50 32.29-7.78L32.29-7.78L32.29-7.78Q30.59-5.06 27.78-3.07L27.78-3.07L27.78-3.07Q21.63 1.28 13.50 1.28L13.50 1.28L13.50 1.28Q6.91 1.28 3.52-0.86L3.52-0.86L3.52-0.86Q0.13-3.01 0.13-6.27L0.13-6.27L0.13-6.27Q0.13-12.10 4.67-13.57L4.67-13.57L4.67-13.57Q5.95-14.02 7.90-14.02L7.90-14.02L7.90-14.02Q9.86-14.02 12.10-13.18L12.10-13.18L12.10-13.18Q11.07-10.56 11.07-8.19L11.07-8.19L11.07-8.19Q11.07-3.07 14.72-3.07L14.72-3.07L14.72-3.07Q17.09-3.07 19.04-4.80L19.04-4.80L19.04-4.80Q20.99-6.53 20.99-8.48L20.99-8.48L20.99-8.48Q20.99-10.43 19.74-11.84L19.74-11.84L19.74-11.84Q18.50-13.25 16.64-14.37L16.64-14.37L16.64-14.37Q14.78-15.49 12.64-16.58L12.64-16.58L12.64-16.58Q10.50-17.66 8.64-19.20L8.64-19.20L8.64-19.20Q4.29-22.72 4.29-28.35L4.29-28.35L4.29-28.35Q4.29-32 6.08-34.85L6.08-34.85L6.08-34.85Q7.87-37.70 10.75-39.62L10.75-39.62L10.75-39.62Q16.51-43.52 23.58-43.52L23.58-43.52L23.58-43.52Q30.66-43.52 34.08-41.41L34.08-41.41L34.08-41.41Q37.50-39.30 37.50-35.71L37.50-35.71L37.50-35.71Q37.50-32.58 35.07-30.59L35.07-30.59L35.07-30.59Q32.96-28.93 30.40-28.93L30.40-28.93L30.40-28.93Q27.84-28.93 26.05-29.57ZM70.27-26.62L70.27-26.62L70.27-26.62Q70.27-23.94 68.03-22.27L68.03-22.27L68.03-22.27Q65.79-20.61 62.14-20.61L62.14-20.61L62.14-20.61Q60.61-20.61 59.71-21.06L59.71-21.06L59.71-21.06Q60.42-22.72 60.64-24.80L60.64-24.80L60.64-24.80Q60.86-26.88 60.86-27.46L60.86-27.46L60.86-27.46Q60.86-30.14 59.01-30.14L59.01-30.14L59.01-30.14Q57.73-30.14 56.29-28.54L56.29-28.54L56.29-28.54Q54.85-26.94 53.63-24.45L53.63-24.45L53.63-24.45Q50.94-18.69 50.94-12.86L50.94-12.86L50.94-12.86Q50.94-9.66 52.16-8.22L52.16-8.22L52.16-8.22Q53.38-6.78 56.06-6.78L56.06-6.78L56.06-6.78Q59.78-6.78 62.72-9.86L62.72-9.86L62.72-9.86Q63.55-10.82 64-11.90L64-11.90L64-11.90Q66.43-10.62 66.43-7.10L66.43-7.10L66.43-7.10Q66.43-3.52 62.46-1.15L62.46-1.15L62.46-1.15Q58.37 1.28 51.84 1.28L51.84 1.28L51.84 1.28Q38.85 1.28 38.85-12.48L38.85-12.48L38.85-12.48Q38.85-22.53 44.54-28.29L44.54-28.29L44.54-28.29Q50.05-33.92 60.16-33.92L60.16-33.92L60.16-33.92Q70.27-33.92 70.27-26.62ZM92.03-17.98L92.03-17.98L92.03-17.98Q94.34-22.08 94.34-26.24L94.34-26.24L94.34-26.24Q94.34-28.99 92.35-28.99L92.35-28.99L92.35-28.99Q90.82-28.99 89.22-26.37L89.22-26.37L89.22-26.37Q87.55-23.74 87.04-20.35L87.04-20.35L83.71 0L70.46 1.28L76.99-32.64L87.55-33.92L86.40-27.46L86.40-27.46Q89.54-33.92 96.58-33.92L96.58-33.92L96.58-33.92Q100.29-33.92 102.30-32L102.30-32L102.30-32Q104.32-30.08 104.32-26.14L104.32-26.14L104.32-26.14Q104.32-22.21 101.73-19.71L101.73-19.71L101.73-19.71Q99.14-17.22 94.72-17.22L94.72-17.22L94.72-17.22Q92.80-17.22 92.03-17.98ZM108.13-1.92L108.13-1.92L108.13-1.92Q106.62-3.58 105.95-6.21L105.95-6.21L105.95-6.21Q105.28-8.83 105.28-13.12L105.28-13.12L105.28-13.12Q105.28-17.41 106.75-21.31L106.75-21.31L106.75-21.31Q108.22-25.22 110.91-28.03L110.91-28.03L110.91-28.03Q116.42-33.92 125.50-33.92L125.50-33.92L125.50-33.92Q128.77-33.92 131.14-32.83L131.14-32.83L142.08-33.92L137.34-8.96L137.34-8.96Q137.15-8.19 137.15-6.78L137.15-6.78L137.15-6.78Q137.15-5.38 138.02-4.48L138.02-4.48L138.02-4.48Q138.88-3.58 140.16-3.46L140.16-3.46L140.16-3.46Q139.52-1.28 137.18 0L137.18 0L137.18 0Q134.85 1.28 132.22 1.28L132.22 1.28L132.22 1.28Q129.60 1.28 127.84 0.29L127.84 0.29L127.84 0.29Q126.08-0.70 125.57-2.37L125.57-2.37L125.57-2.37Q124.54-0.77 122.37 0.26L122.37 0.26L122.37 0.26Q120.19 1.28 117.28 1.28L117.28 1.28L117.28 1.28Q114.37 1.28 112 0.51L112 0.51L112 0.51Q109.63-0.26 108.13-1.92ZM121.63-27.90L121.63-27.90L121.63-27.90Q120.90-26.75 120.26-24.80L120.26-24.80L120.26-24.80Q119.62-22.85 118.56-17.63L118.56-17.63L118.56-17.63Q117.50-12.42 117.50-8.70L117.50-8.70L117.50-8.70Q117.50-4.99 118.08-3.90L118.08-3.90L118.08-3.90Q118.66-2.82 119.68-2.82L119.68-2.82L119.68-2.82Q121.73-2.82 123.23-4.77L123.23-4.77L123.23-4.77Q124.74-6.72 125.31-10.18L125.31-10.18L128.70-28.93L128.70-28.93Q127.36-30.08 125.79-30.08L125.79-30.08L125.79-30.08Q124.22-30.08 123.30-29.57L123.30-29.57L123.30-29.57Q122.37-29.06 121.63-27.90ZM175.36-4.38L175.36-4.38L175.36-4.38Q172.67-1.66 168.99-0.19L168.99-0.19L168.99-0.19Q165.31 1.28 161.66 1.28L161.66 1.28L161.66 1.28Q158.02 1.28 156.74 0.64L156.74 0.64L154.75 11.52L141.76 12.80L150.59-32.64L161.02-33.73L160.19-29.31L160.19-29.31Q162.88-33.86 168.45-33.86L168.45-33.86L168.45-33.86Q174.72-33.86 178.05-29.82L178.05-29.82L178.05-29.82Q180.99-26.18 180.99-20.61L180.99-20.61L180.99-20.61Q180.99-15.04 179.52-11.07L179.52-11.07L179.52-11.07Q178.05-7.10 175.36-4.38ZM160.90-22.34L157.50-3.58L157.50-3.58Q158.85-2.43 160.51-2.43L160.51-2.43L160.51-2.43Q162.18-2.43 163.14-3.07L163.14-3.07L163.14-3.07Q164.10-3.71 164.80-4.99L164.80-4.99L164.80-4.99Q166.72-8.45 168.26-18.94L168.26-18.94L168.26-18.94Q168.70-22.02 168.70-25.02L168.70-25.02L168.70-25.02Q168.70-28.03 168.03-28.99L168.03-28.99L168.03-28.99Q167.36-29.95 166.08-29.95L166.08-29.95L166.08-29.95Q162.18-29.95 160.90-22.34L160.90-22.34ZM184-3.07L184-3.07L191.94-44.80L204.93-46.08L202.94-36.29L202.94-36.29Q202.24-33.28 201.34-31.17L201.34-31.17L201.34-31.17Q202.75-32.96 205.82-33.66L205.82-33.66L205.82-33.66Q206.72-33.92 207.81-33.92L207.81-33.92L207.81-33.92Q213.76-33.92 217.02-30.30L217.02-30.30L217.02-30.30Q220.29-26.69 220.29-19.71L220.29-19.71L220.29-19.71Q220.29-10.62 215.10-4.93L215.10-4.93L215.10-4.93Q209.54 1.28 199.42 1.28L199.42 1.28L199.42 1.28Q192.45 1.28 187.20-1.02L187.20-1.02L187.20-1.02Q185.34-1.86 184-3.07ZM200.26-22.40L196.86-3.65L196.86-3.65Q198.21-2.50 199.87-2.50L199.87-2.50L199.87-2.50Q201.54-2.50 202.50-3.14L202.50-3.14L202.50-3.14Q203.46-3.78 204.16-5.06L204.16-5.06L204.16-5.06Q206.08-8.51 207.62-19.07L207.62-19.07L207.62-19.07Q208.06-22.08 208.06-25.09L208.06-25.09L208.06-25.09Q208.06-28.10 207.39-29.06L207.39-29.06L207.39-29.06Q206.72-30.02 205.44-30.02L205.44-30.02L205.44-30.02Q201.54-30.02 200.26-22.40L200.26-22.40ZM238.08 1.28L238.08 1.28L238.08 1.28Q224 1.28 224-11.97L224-11.97L224-11.97Q224-21.38 229.18-27.46L229.18-27.46L229.18-27.46Q234.69-33.92 244.22-33.92L244.22-33.92L244.22-33.92Q251.14-33.92 254.66-30.72L254.66-30.72L254.66-30.72Q258.18-27.52 258.18-20.80L258.18-20.80L258.18-20.80Q258.18-10.56 252.67-4.61L252.67-4.61L252.67-4.61Q247.30 1.28 238.08 1.28ZM239.74-26.56L239.74-26.56L239.74-26.56Q238.98-24.83 238.37-22.24L238.37-22.24L238.37-22.24Q237.76-19.65 236.99-15.55L236.99-15.55L236.99-15.55Q236.22-11.46 236.22-6.40L236.22-6.40L236.22-6.40Q236.22-4.74 236.77-3.65L236.77-3.65L236.77-3.65Q237.31-2.56 238.78-2.56L238.78-2.56L238.78-2.56Q240.26-2.56 241.18-3.26L241.18-3.26L241.18-3.26Q242.11-3.97 242.82-5.63L242.82-5.63L242.82-5.63Q244.10-8.58 245.12-14.05L245.12-14.05L245.12-14.05Q246.14-19.52 246.24-21.89L246.24-21.89L246.24-21.89Q246.34-24.26 246.34-26.02L246.34-26.02L246.34-26.02Q246.34-27.78 245.82-28.93L245.82-28.93L245.82-28.93Q245.31-30.08 243.87-30.08L243.87-30.08L243.87-30.08Q242.43-30.08 241.47-29.18L241.47-29.18L241.47-29.18Q240.51-28.29 239.74-26.56ZM275.90 1.28L275.90 1.28L275.90 1.28Q261.82 1.28 261.82-11.97L261.82-11.97L261.82-11.97Q261.82-21.38 267.01-27.46L267.01-27.46L267.01-27.46Q272.51-33.92 282.05-33.92L282.05-33.92L282.05-33.92Q288.96-33.92 292.48-30.72L292.48-30.72L292.48-30.72Q296-27.52 296-20.80L296-20.80L296-20.80Q296-10.56 290.50-4.61L290.50-4.61L290.50-4.61Q285.12 1.28 275.90 1.28ZM277.57-26.56L277.57-26.56L277.57-26.56Q276.80-24.83 276.19-22.24L276.19-22.24L276.19-22.24Q275.58-19.65 274.82-15.55L274.82-15.55L274.82-15.55Q274.05-11.46 274.05-6.40L274.05-6.40L274.05-6.40Q274.05-4.74 274.59-3.65L274.59-3.65L274.59-3.65Q275.14-2.56 276.61-2.56L276.61-2.56L276.61-2.56Q278.08-2.56 279.01-3.26L279.01-3.26L279.01-3.26Q279.94-3.97 280.64-5.63L280.64-5.63L280.64-5.63Q281.92-8.58 282.94-14.05L282.94-14.05L282.94-14.05Q283.97-19.52 284.06-21.89L284.06-21.89L284.06-21.89Q284.16-24.26 284.16-26.02L284.16-26.02L284.16-26.02Q284.16-27.78 283.65-28.93L283.65-28.93L283.65-28.93Q283.14-30.08 281.70-30.08L281.70-30.08L281.70-30.08Q280.26-30.08 279.30-29.18L279.30-29.18L279.30-29.18Q278.34-28.29 277.57-26.56ZM316.29-30.34L316.29-30.34L316.29-30.34Q319.74-33.92 327.04-33.92L327.04-33.92L327.04-33.92Q331.07-33.92 333.28-31.78L333.28-31.78L333.28-31.78Q335.49-29.63 335.49-25.70L335.49-25.70L335.49-25.70Q335.49-21.76 333.28-18.98L333.28-18.98L333.28-18.98Q331.07-16.19 326.98-15.04L326.98-15.04L326.98-15.04Q327.30-13.76 327.74-12.42L327.74-12.42L328.64-9.86L328.64-9.86Q329.86-6.59 330.82-5.44L330.82-5.44L330.82-5.44Q331.78-4.29 333.06-3.90L333.06-3.90L333.06-3.90Q332.35-1.28 329.79 0.13L329.79 0.13L329.79 0.13Q327.74 1.28 324.93 1.28L324.93 1.28L324.93 1.28Q316.67 1.28 315.58-11.46L315.58-11.46L315.58-11.46Q315.39-13.25 315.39-15.04L315.39-15.04L315.39-15.04Q318.59-15.94 320.83-18.94L320.83-18.94L320.83-18.94Q323.07-21.95 323.07-25.47L323.07-25.47L323.07-25.47Q323.07-28.99 320.58-28.99L320.58-28.99L320.58-28.99Q318.78-28.99 317.38-27.01L317.38-27.01L317.38-27.01Q315.97-25.02 315.33-21.63L315.33-21.63L311.10 0L298.18 1.28L307.14-44.80L320-46.08L318.53-38.46L318.53-38.46Q317.57-33.09 316.29-30.34Z" fill="#fff"></path></g></g><style>text {
  font-size: 64px;
  font-family: Arial Black;
  dominant-baseline: central;
  text-anchor: middle;
}</style></svg>